<svg id="Layer_1" data-name="Layer 1" xmlns="http://www.w3.org/2000/svg" viewBox="0 0 40.94 62.67"><defs><style>.cls-1{fill:#7cc4c4;}</style></defs><title>logo</title><path class="cls-1" d="M442.11,10.25V72.92H420V20.14l22.07-9.89h0ZM461,21.84V32.28l-6.27-2.81V19Zm0,13.58v2.14a24.51,24.51,0,0,1-4,5.21q-0.46.46-.94,0.89l-1.35-.6V32.61Zm0,0v2.14a24.51,24.51,0,0,1-4,5.21q-0.46.46-.94,0.89l-1.35-.6V32.61Zm0,0v2.14a24.51,24.51,0,0,1-4,5.21q-0.46.46-.94,0.89l-1.35-.6V32.61Zm0,0v2.14a24.51,24.51,0,0,1-4,5.21q-0.46.46-.94,0.89l-1.35-.6V32.61Zm0,0v2.14a24.51,24.51,0,0,1-4,5.21q-0.46.46-.94,0.89l-1.35-.6V32.61Zm0,0v2.14a24.51,24.51,0,0,1-4,5.21q-0.46.46-.94,0.89l-1.35-.6V32.61Zm0,0v2.14a24.51,24.51,0,0,1-4,5.21q-0.46.46-.94,0.89l-1.35-.6V32.61Zm0,0v2.14a24.51,24.51,0,0,1-4,5.21q-0.46.46-.94,0.89l-1.35-.6V32.61Zm0,0v2.14a24.51,24.51,0,0,1-4,5.21q-0.46.46-.94,0.89l-1.35-.6V32.61Zm-9.4,9.37v2.08a24.28,24.28,0,0,1-6.27,2.43V42Zm9.4-9.37v2.14a24.51,24.51,0,0,1-4,5.21q-0.46.46-.94,0.89l-1.35-.6V32.61Zm0,0v2.14a24.51,24.51,0,0,1-4,5.21q-0.46.46-.94,0.89l-1.35-.6V32.61Zm0,0v2.14a24.51,24.51,0,0,1-4,5.21q-0.46.46-.94,0.89l-1.35-.6V32.61Zm0,0v2.14a24.51,24.51,0,0,1-4,5.21q-0.46.46-.94,0.89l-1.35-.6V32.61Zm0,0v2.14a24.51,24.51,0,0,1-4,5.21q-0.46.46-.94,0.89l-1.35-.6V32.61Zm0,0v2.14a24.51,24.51,0,0,1-4,5.21q-0.46.46-.94,0.89l-1.35-.6V32.61Zm0,0v2.14a24.51,24.51,0,0,1-4,5.21q-0.46.46-.94,0.89l-1.35-.6V32.61Zm0,0v2.14a24.51,24.51,0,0,1-4,5.21q-0.46.46-.94,0.89l-1.35-.6V32.61Zm0,0v2.14a24.51,24.51,0,0,1-4,5.21q-0.46.46-.94,0.89l-1.35-.6V32.61Zm0,0v2.14a24.51,24.51,0,0,1-4,5.21q-0.46.46-.94,0.89l-1.35-.6V32.61Zm-9.4-4.21V41.65l-6.27-2.81V28.4Zm0-13.58V28.07l-6.27-2.81V14.82Z" transform="translate(-420.04 -10.25)"/></svg>