<svg id="Layer_1" data-name="Layer 1" xmlns="http://www.w3.org/2000/svg" viewBox="0 0 40.94 62.67"><defs><style>.cls-1{fill:#fff;}</style></defs><title>logomark</title><path class="cls-1" d="M442.11-61.08V1.59H420V-51.19l22.07-9.89h0ZM461-49.5v10.44l-6.27-2.81V-52.3Zm0,13.58v2.14a24.51,24.51,0,0,1-4,5.21q-0.46.46-.94,0.89l-1.35-.6V-38.72Zm0,0v2.14a24.51,24.51,0,0,1-4,5.21q-0.46.46-.94,0.89l-1.35-.6V-38.72Zm0,0v2.14a24.51,24.51,0,0,1-4,5.21q-0.46.46-.94,0.89l-1.35-.6V-38.72Zm0,0v2.14a24.51,24.51,0,0,1-4,5.21q-0.46.46-.94,0.89l-1.35-.6V-38.72Zm0,0v2.14a24.51,24.51,0,0,1-4,5.21q-0.46.46-.94,0.89l-1.35-.6V-38.72Zm0,0v2.14a24.51,24.51,0,0,1-4,5.21q-0.46.46-.94,0.89l-1.35-.6V-38.72Zm0,0v2.14a24.51,24.51,0,0,1-4,5.21q-0.46.46-.94,0.89l-1.35-.6V-38.72Zm0,0v2.14a24.51,24.51,0,0,1-4,5.21q-0.46.46-.94,0.89l-1.35-.6V-38.72Zm0,0v2.14a24.51,24.51,0,0,1-4,5.21q-0.46.46-.94,0.89l-1.35-.6V-38.72Zm-9.4,9.37v2.08A24.28,24.28,0,0,1,445.31-22v-7.32Zm9.4-9.37v2.14a24.51,24.51,0,0,1-4,5.21q-0.46.46-.94,0.89l-1.35-.6V-38.72Zm0,0v2.14a24.51,24.51,0,0,1-4,5.21q-0.46.46-.94,0.89l-1.35-.6V-38.72Zm0,0v2.14a24.51,24.51,0,0,1-4,5.21q-0.46.46-.94,0.89l-1.35-.6V-38.72Zm0,0v2.14a24.51,24.51,0,0,1-4,5.21q-0.46.46-.94,0.89l-1.35-.6V-38.72Zm0,0v2.14a24.51,24.51,0,0,1-4,5.21q-0.46.46-.94,0.89l-1.35-.6V-38.72Zm0,0v2.14a24.51,24.51,0,0,1-4,5.21q-0.46.46-.94,0.89l-1.35-.6V-38.72Zm0,0v2.14a24.51,24.51,0,0,1-4,5.21q-0.46.46-.94,0.89l-1.35-.6V-38.72Zm0,0v2.14a24.51,24.51,0,0,1-4,5.21q-0.46.46-.94,0.89l-1.35-.6V-38.72Zm0,0v2.14a24.51,24.51,0,0,1-4,5.21q-0.46.46-.94,0.89l-1.35-.6V-38.72Zm0,0v2.14a24.51,24.51,0,0,1-4,5.21q-0.46.46-.94,0.89l-1.35-.6V-38.72Zm-9.4-4.21v10.44l-6.27-2.81V-42.94Zm0-13.58v10.44l-6.27-2.81V-56.51Z" transform="translate(-420.04 61.08)"/></svg>