<svg id="Layer_1" data-name="Layer 1" xmlns="http://www.w3.org/2000/svg" viewBox="0 0 271.65 62.67"><defs><style>.cls-1{fill:#fff;}</style></defs><title>logo</title><path class="cls-1" d="M691.56-21.45v1h-6.78v3.25H684v-4.23h7.6Zm0,6.45v1h-6.78v3.25H684V-15h7.6ZM684.21-3.68a4.87,4.87,0,0,1-.36-2,3.55,3.55,0,0,1,3.84-3.75,3.78,3.78,0,0,1,4,4,4.1,4.1,0,0,1-.34,1.81l-0.8-.24a3.57,3.57,0,0,0,.32-1.53,2.83,2.83,0,0,0-3.13-3,2.76,2.76,0,0,0-3.06,2.92,3.92,3.92,0,0,0,.31,1.6Zm-242.1-57.4V1.59H420V-51.19l22.07-9.89h0ZM461-49.5v10.44l-6.27-2.81V-52.3Zm0,13.58v2.14a24.51,24.51,0,0,1-4,5.21q-0.46.46-.94,0.89l-1.35-.6V-38.72Zm0,0v2.14a24.51,24.51,0,0,1-4,5.21q-0.46.46-.94,0.89l-1.35-.6V-38.72Zm0,0v2.14a24.51,24.51,0,0,1-4,5.21q-0.46.46-.94,0.89l-1.35-.6V-38.72Zm0,0v2.14a24.51,24.51,0,0,1-4,5.21q-0.46.46-.94,0.89l-1.35-.6V-38.72Zm0,0v2.14a24.51,24.51,0,0,1-4,5.21q-0.46.46-.94,0.89l-1.35-.6V-38.72Zm0,0v2.14a24.51,24.51,0,0,1-4,5.21q-0.46.46-.94,0.89l-1.35-.6V-38.72Zm0,0v2.14a24.51,24.51,0,0,1-4,5.21q-0.46.46-.94,0.89l-1.35-.6V-38.72Zm0,0v2.14a24.51,24.51,0,0,1-4,5.21q-0.46.46-.94,0.89l-1.35-.6V-38.72Zm0,0v2.14a24.51,24.51,0,0,1-4,5.21q-0.46.46-.94,0.89l-1.35-.6V-38.72Zm-9.4,9.37v2.08A24.28,24.28,0,0,1,445.31-22v-7.32Zm9.4-9.37v2.14a24.51,24.51,0,0,1-4,5.21q-0.46.46-.94,0.89l-1.35-.6V-38.72Zm0,0v2.14a24.51,24.51,0,0,1-4,5.21q-0.46.46-.94,0.89l-1.35-.6V-38.72Zm0,0v2.14a24.51,24.51,0,0,1-4,5.21q-0.46.46-.94,0.89l-1.35-.6V-38.72Zm0,0v2.14a24.51,24.51,0,0,1-4,5.21q-0.46.46-.94,0.89l-1.35-.6V-38.72Zm0,0v2.14a24.51,24.51,0,0,1-4,5.21q-0.46.46-.94,0.89l-1.35-.6V-38.72Zm0,0v2.14a24.51,24.51,0,0,1-4,5.21q-0.46.46-.94,0.89l-1.35-.6V-38.72Zm0,0v2.14a24.51,24.51,0,0,1-4,5.21q-0.46.46-.94,0.89l-1.35-.6V-38.72Zm0,0v2.14a24.51,24.51,0,0,1-4,5.21q-0.46.46-.94,0.89l-1.35-.6V-38.72Zm0,0v2.14a24.51,24.51,0,0,1-4,5.21q-0.46.46-.94,0.89l-1.35-.6V-38.72Zm0,0v2.14a24.51,24.51,0,0,1-4,5.21q-0.46.46-.94,0.89l-1.35-.6V-38.72Zm-9.4-4.21v10.44l-6.27-2.81V-42.94Zm0-13.58v10.44l-6.27-2.81V-56.51Zm33.63,20v6.44h-4.13V-49.14c3.41,0,6.91,0,10.32,0,10.76,0,10.79,15.39,0,15.48h-6.19Zm0-3.78h6.19c5.29,0,5.25-7.76,0-7.76h-6.19v7.76Zm37,10.23h-4.72l-6.35-7.32H507v7.32h-4.13V-49.17c3.47,0,6.94,0,10.41,0,5.16,0,7.88,3.47,7.88,7.26,0,3-1.38,6-5.54,6.88l6.63,7.47v0.28ZM507-45.29v7h6.29a3.41,3.41,0,0,0,3.75-3.5,3.43,3.43,0,0,0-3.75-3.5H507Zm35,18H525.62V-49.14H542v4H529.71v5h11.85v3.85H529.71v4.94H542v4.07Zm17.45-16.61a6.27,6.27,0,0,0-5.19-2.44c-3.07,0-4.53,1.28-4.53,2.91,0,1.91,2.25,2.44,4.88,2.75,4.57,0.56,8.82,1.75,8.82,7,0,4.88-4.32,7-9.2,7-4.47,0-7.91-1.38-9.54-5.38l3.44-1.78c1,2.41,3.5,3.47,6.16,3.47s5-.91,5-3.28c0-2.06-2.16-2.91-5.07-3.22-4.47-.53-8.6-1.72-8.6-6.63,0-4.5,4.44-6.35,8.48-6.38,3.41,0,6.94,1,8.6,4.35Zm12.6-1.53h-6.94v-3.75h18v3.75h-6.94v18.14h-4.13V-45.38Zm14.82,18.14V-49.14H591v21.89h-4.1ZM612-43.79A8.39,8.39,0,0,0,606.46-46c-4.69,0-7.54,3.57-7.54,8.07,0,3.6,2.1,7.32,7.54,7.32a7.28,7.28,0,0,0,4.94-1.75v-3.88h-5.6v-3.69h9.38v9.23a10.91,10.91,0,0,1-8.73,3.94c-8.23,0-11.57-5.41-11.57-11.17,0-6.16,3.85-11.85,11.57-11.85a11.56,11.56,0,0,1,8.13,3.35Zm23.14,16.54H618.78V-49.14h16.39v4H622.88v5h11.85v3.85H622.88v4.94h12.29v4.07ZM485.21-6.3V0.14h-4.13V-21.75c3.41,0,6.91,0,10.32,0,10.76,0,10.79,15.39,0,15.48h-6.19Zm0-3.78h6.19c5.29,0,5.25-7.76,0-7.76h-6.19v7.76Zm37,10.23h-4.72l-6.35-7.32H507V0.14h-4.13V-21.78c3.47,0,6.94,0,10.41,0,5.16,0,7.88,3.47,7.88,7.26,0,3-1.38,6-5.54,6.88l6.63,7.47V0.14ZM507-17.9v7h6.29A3.41,3.41,0,0,0,517-14.4a3.43,3.43,0,0,0-3.75-3.5H507Zm39.69,7.22C546.6-5,543.13.64,535.44,0.64s-11.26-5.54-11.26-11.29a11.07,11.07,0,0,1,11.35-11.54C543-22.13,546.73-16.37,546.66-10.68ZM535.44-3.14c5.16,0,7.1-3.88,7.16-7.47s-2-7.73-7.07-7.82c-4.66,0-7.41,3.5-7.29,7.85C528.34-7,530.28-3.14,535.44-3.14ZM554.67-6.3V0.14h-4.13V-21.75c3.41,0,6.91,0,10.32,0,10.76,0,10.79,15.39,0,15.48h-6.19Zm0-3.78h6.19c5.29,0,5.25-7.76,0-7.76h-6.19v7.76Zm34,10.23H572.31V-21.75h16.39v4H576.4v5h11.85v3.85H576.4v4.94h12.29V0.14Zm23.8,0h-4.72l-6.35-7.32h-4.19V0.14H593.1V-21.78c3.47,0,6.94,0,10.41,0,5.16,0,7.88,3.47,7.88,7.26,0,3-1.38,6-5.54,6.88L612.5-.14V0.14Zm-15.26-18v7h6.29a3.41,3.41,0,0,0,3.75-3.5,3.43,3.43,0,0,0-3.75-3.5h-6.29ZM620.41-18h-6.94v-3.75h18V-18h-6.94V0.14h-4.13V-18ZM634.6,0.14V-21.75h4.1V0.14h-4.1Zm25.05,0H643.27V-21.75h16.39v4H647.36v5h11.85v3.85H647.36v4.94h12.29V0.14Zm17.45-16.61a6.27,6.27,0,0,0-5.19-2.44c-3.07,0-4.53,1.28-4.53,2.91,0,1.91,2.25,2.44,4.88,2.75,4.57,0.56,8.82,1.75,8.82,7,0,4.88-4.32,7-9.2,7-4.47,0-7.91-1.38-9.54-5.38l3.44-1.78c1,2.41,3.5,3.47,6.16,3.47s5-.91,5-3.28c0-2.06-2.16-2.91-5.07-3.22-4.47-.53-8.6-1.72-8.6-6.63,0-4.5,4.44-6.35,8.48-6.38,3.41,0,6.94,1,8.6,4.35Z" transform="translate(-420.04 61.08)"/></svg>