<svg id="Layer_1" data-name="Layer 1" xmlns="http://www.w3.org/2000/svg" viewBox="0 0 16 24.46"><defs><style>.cls-1{fill:#7cc4c4;}</style></defs><title>logo_marker</title><path class="cls-1" d="M8.63,19.11V43.56H0V23l8.61-3.86h0ZM16,23.63V27.7l-2.45-1.1V22.53Zm0,5.3v0.84a9.56,9.56,0,0,1-1.56,2l-0.37.35-0.53-.23V27.83Zm0,0v0.84a9.56,9.56,0,0,1-1.56,2l-0.37.35-0.53-.23V27.83Zm0,0v0.84a9.56,9.56,0,0,1-1.56,2l-0.37.35-0.53-.23V27.83Zm0,0v0.84a9.56,9.56,0,0,1-1.56,2l-0.37.35-0.53-.23V27.83Zm0,0v0.84a9.56,9.56,0,0,1-1.56,2l-0.37.35-0.53-.23V27.83Zm0,0v0.84a9.56,9.56,0,0,1-1.56,2l-0.37.35-0.53-.23V27.83Zm0,0v0.84a9.56,9.56,0,0,1-1.56,2l-0.37.35-0.53-.23V27.83Zm0,0v0.84a9.56,9.56,0,0,1-1.56,2l-0.37.35-0.53-.23V27.83Zm0,0v0.84a9.56,9.56,0,0,1-1.56,2l-0.37.35-0.53-.23V27.83Zm-3.67,3.66v0.81a9.48,9.48,0,0,1-2.45,1V31.5ZM16,28.93v0.84a9.56,9.56,0,0,1-1.56,2l-0.37.35-0.53-.23V27.83Zm0,0v0.84a9.56,9.56,0,0,1-1.56,2l-0.37.35-0.53-.23V27.83Zm0,0v0.84a9.56,9.56,0,0,1-1.56,2l-0.37.35-0.53-.23V27.83Zm0,0v0.84a9.56,9.56,0,0,1-1.56,2l-0.37.35-0.53-.23V27.83Zm0,0v0.84a9.56,9.56,0,0,1-1.56,2l-0.37.35-0.53-.23V27.83Zm0,0v0.84a9.56,9.56,0,0,1-1.56,2l-0.37.35-0.53-.23V27.83Zm0,0v0.84a9.56,9.56,0,0,1-1.56,2l-0.37.35-0.53-.23V27.83Zm0,0v0.84a9.56,9.56,0,0,1-1.56,2l-0.37.35-0.53-.23V27.83Zm0,0v0.84a9.56,9.56,0,0,1-1.56,2l-0.37.35-0.53-.23V27.83Zm0,0v0.84a9.56,9.56,0,0,1-1.56,2l-0.37.35-0.53-.23V27.83Zm-3.67-1.64v4.07l-2.45-1.1V26.19Zm0-5.3v4.07L9.88,25V20.89Z" transform="translate(0 -19.11)"/></svg>