<svg id="Layer_1" data-name="Layer 1" xmlns="http://www.w3.org/2000/svg" viewBox="0 0 271.65 62.67"><defs><style>.cls-1{fill:#7cc4c4;}</style></defs><title>logoblue</title><path class="cls-1" d="M691.56-88.57v1h-6.78v3.25H684v-4.23h7.6Z" transform="translate(-420.04 128.2)"/><path class="cls-1" d="M691.56-82.12v1h-6.78v3.25H684v-4.23h7.6Z" transform="translate(-420.04 128.2)"/><path class="cls-1" d="M684.21-70.8a4.87,4.87,0,0,1-.36-2,3.55,3.55,0,0,1,3.84-3.75,3.78,3.78,0,0,1,4,4,4.1,4.1,0,0,1-.34,1.81l-0.8-.24a3.57,3.57,0,0,0,.32-1.53,2.83,2.83,0,0,0-3.13-3,2.76,2.76,0,0,0-3.06,2.92A3.92,3.92,0,0,0,685-71Z" transform="translate(-420.04 128.2)"/><path class="cls-1" d="M442.11-128.2v62.67H420v-52.78l22.07-9.89h0ZM461-116.61v10.44L454.72-109v-10.44ZM461-103v2.14a24.51,24.51,0,0,1-4,5.21q-0.46.46-.94,0.89l-1.35-.6v-10.44Zm0,0v2.14a24.51,24.51,0,0,1-4,5.21q-0.46.46-.94,0.89l-1.35-.6v-10.44Zm0,0v2.14a24.51,24.51,0,0,1-4,5.21q-0.46.46-.94,0.89l-1.35-.6v-10.44Zm0,0v2.14a24.51,24.51,0,0,1-4,5.21q-0.46.46-.94,0.89l-1.35-.6v-10.44Zm0,0v2.14a24.51,24.51,0,0,1-4,5.21q-0.46.46-.94,0.89l-1.35-.6v-10.44Zm0,0v2.14a24.51,24.51,0,0,1-4,5.21q-0.46.46-.94,0.89l-1.35-.6v-10.44Zm0,0v2.14a24.51,24.51,0,0,1-4,5.21q-0.46.46-.94,0.89l-1.35-.6v-10.44Zm0,0v2.14a24.51,24.51,0,0,1-4,5.21q-0.46.46-.94,0.89l-1.35-.6v-10.44Zm0,0v2.14a24.51,24.51,0,0,1-4,5.21q-0.46.46-.94,0.89l-1.35-.6v-10.44Zm-9.4,9.37v2.08a24.28,24.28,0,0,1-6.27,2.43v-7.32ZM461-103v2.14a24.51,24.51,0,0,1-4,5.21q-0.46.46-.94,0.89l-1.35-.6v-10.44Zm0,0v2.14a24.51,24.51,0,0,1-4,5.21q-0.46.46-.94,0.89l-1.35-.6v-10.44Zm0,0v2.14a24.51,24.51,0,0,1-4,5.21q-0.46.46-.94,0.89l-1.35-.6v-10.44Zm0,0v2.14a24.51,24.51,0,0,1-4,5.21q-0.46.46-.94,0.89l-1.35-.6v-10.44Zm0,0v2.14a24.51,24.51,0,0,1-4,5.21q-0.46.46-.94,0.89l-1.35-.6v-10.44Zm0,0v2.14a24.51,24.51,0,0,1-4,5.21q-0.46.46-.94,0.89l-1.35-.6v-10.44Zm0,0v2.14a24.51,24.51,0,0,1-4,5.21q-0.46.46-.94,0.89l-1.35-.6v-10.44Zm0,0v2.14a24.51,24.51,0,0,1-4,5.21q-0.46.46-.94,0.89l-1.35-.6v-10.44Zm0,0v2.14a24.51,24.51,0,0,1-4,5.21q-0.46.46-.94,0.89l-1.35-.6v-10.44Zm0,0v2.14a24.51,24.51,0,0,1-4,5.21q-0.46.46-.94,0.89l-1.35-.6v-10.44Zm-9.4-4.21V-96.8l-6.27-2.81v-10.44Zm0-13.58v10.44l-6.27-2.81v-10.44Z" transform="translate(-420.04 128.2)"/><path class="cls-1" d="M485.21-100.8v6.44h-4.13v-21.89c3.41,0,6.91,0,10.32,0,10.76,0,10.79,15.39,0,15.48h-6.19Zm0-3.78h6.19c5.29,0,5.25-7.76,0-7.76h-6.19v7.76Z" transform="translate(-420.04 128.2)"/><path class="cls-1" d="M522.24-94.36h-4.72l-6.35-7.32H507v7.32h-4.13v-21.92c3.47,0,6.94,0,10.41,0,5.16,0,7.88,3.47,7.88,7.26,0,3-1.38,6-5.54,6.88l6.63,7.47v0.28Zm-15.26-18v7h6.29a3.41,3.41,0,0,0,3.75-3.5,3.43,3.43,0,0,0-3.75-3.5H507Z" transform="translate(-420.04 128.2)"/><path class="cls-1" d="M542-94.36H525.62v-21.89H542v4H529.71v5h11.85v3.85H529.71v4.94H542v4.07Z" transform="translate(-420.04 128.2)"/><path class="cls-1" d="M559.45-111a6.27,6.27,0,0,0-5.19-2.44c-3.07,0-4.53,1.28-4.53,2.91,0,1.91,2.25,2.44,4.88,2.75,4.57,0.56,8.82,1.75,8.82,7,0,4.88-4.32,7-9.2,7-4.47,0-7.91-1.38-9.54-5.38l3.44-1.78c1,2.41,3.5,3.47,6.16,3.47s5-.91,5-3.28c0-2.06-2.16-2.91-5.07-3.22-4.47-.53-8.6-1.72-8.6-6.63,0-4.5,4.44-6.35,8.48-6.38,3.41,0,6.94,1,8.6,4.35Z" transform="translate(-420.04 128.2)"/><path class="cls-1" d="M572.06-112.5h-6.94v-3.75h18v3.75h-6.94v18.14h-4.13V-112.5Z" transform="translate(-420.04 128.2)"/><path class="cls-1" d="M586.88-94.36v-21.89H591v21.89h-4.1Z" transform="translate(-420.04 128.2)"/><path class="cls-1" d="M612-110.91a8.39,8.39,0,0,0-5.57-2.19c-4.69,0-7.54,3.57-7.54,8.07,0,3.6,2.1,7.32,7.54,7.32a7.28,7.28,0,0,0,4.94-1.75v-3.88h-5.6V-107h9.38v9.23a10.91,10.91,0,0,1-8.73,3.94c-8.23,0-11.57-5.41-11.57-11.17,0-6.16,3.85-11.85,11.57-11.85a11.56,11.56,0,0,1,8.13,3.35Z" transform="translate(-420.04 128.2)"/><path class="cls-1" d="M635.17-94.36H618.78v-21.89h16.39v4H622.88v5h11.85v3.85H622.88v4.94h12.29v4.07Z" transform="translate(-420.04 128.2)"/><path class="cls-1" d="M485.21-73.42V-67h-4.13V-88.87c3.41,0,6.91,0,10.32,0,10.76,0,10.79,15.39,0,15.48h-6.19Zm0-3.78h6.19c5.29,0,5.25-7.76,0-7.76h-6.19v7.76Z" transform="translate(-420.04 128.2)"/><path class="cls-1" d="M522.24-67h-4.72l-6.35-7.32H507V-67h-4.13V-88.9c3.47,0,6.94,0,10.41,0,5.16,0,7.88,3.47,7.88,7.26,0,3-1.38,6-5.54,6.88l6.63,7.47V-67ZM507-85v7h6.29a3.41,3.41,0,0,0,3.75-3.5,3.43,3.43,0,0,0-3.75-3.5H507Z" transform="translate(-420.04 128.2)"/><path class="cls-1" d="M546.66-77.8c-0.06,5.66-3.53,11.32-11.23,11.32S524.18-72,524.18-77.77a11.07,11.07,0,0,1,11.35-11.54C543-89.24,546.73-83.49,546.66-77.8Zm-11.23,7.54c5.16,0,7.1-3.88,7.16-7.47s-2-7.73-7.07-7.82c-4.66,0-7.41,3.5-7.29,7.85C528.34-74.11,530.28-70.26,535.44-70.26Z" transform="translate(-420.04 128.2)"/><path class="cls-1" d="M554.67-73.42V-67h-4.13V-88.87c3.41,0,6.91,0,10.32,0,10.76,0,10.79,15.39,0,15.48h-6.19Zm0-3.78h6.19c5.29,0,5.25-7.76,0-7.76h-6.19v7.76Z" transform="translate(-420.04 128.2)"/><path class="cls-1" d="M588.69-67H572.31V-88.87h16.39v4H576.4v5h11.85V-76H576.4V-71h12.29V-67Z" transform="translate(-420.04 128.2)"/><path class="cls-1" d="M612.5-67h-4.72l-6.35-7.32h-4.19V-67H593.1V-88.9c3.47,0,6.94,0,10.41,0,5.16,0,7.88,3.47,7.88,7.26,0,3-1.38,6-5.54,6.88l6.63,7.47V-67ZM597.23-85v7h6.29a3.41,3.41,0,0,0,3.75-3.5,3.43,3.43,0,0,0-3.75-3.5h-6.29Z" transform="translate(-420.04 128.2)"/><path class="cls-1" d="M620.41-85.12h-6.94v-3.75h18v3.75h-6.94V-67h-4.13V-85.12Z" transform="translate(-420.04 128.2)"/><path class="cls-1" d="M634.6-67V-88.87h4.1V-67h-4.1Z" transform="translate(-420.04 128.2)"/><path class="cls-1" d="M659.65-67H643.27V-88.87h16.39v4H647.36v5h11.85V-76H647.36V-71h12.29V-67Z" transform="translate(-420.04 128.2)"/><path class="cls-1" d="M677.11-83.58A6.27,6.27,0,0,0,671.91-86c-3.07,0-4.53,1.28-4.53,2.91,0,1.91,2.25,2.44,4.88,2.75,4.57,0.56,8.82,1.75,8.82,7,0,4.88-4.32,7-9.2,7-4.47,0-7.91-1.38-9.54-5.38l3.44-1.78c1,2.41,3.5,3.47,6.16,3.47s5-.91,5-3.28c0-2.06-2.16-2.91-5.07-3.22-4.47-.53-8.6-1.72-8.6-6.63,0-4.5,4.44-6.35,8.48-6.38,3.41,0,6.94,1,8.6,4.35Z" transform="translate(-420.04 128.2)"/></svg>